<?xml version="1.0" encoding="utf-8"?>
<!-- Generator: Adobe Illustrator 16.0.0, SVG Export Plug-In . SVG Version: 6.00 Build 0)  -->
<!DOCTYPE svg PUBLIC "-//W3C//DTD SVG 1.1//EN" "http://www.w3.org/Graphics/SVG/1.1/DTD/svg11.dtd">
<svg version="1.1" id="Layer_1" xmlns="http://www.w3.org/2000/svg" xmlns:xlink="http://www.w3.org/1999/xlink" x="0px" y="0px"
	 width="52.957px" height="65.104px" viewBox="0 0 52.957 65.104" enable-background="new 0 0 52.957 65.104" xml:space="preserve">
<g>
	<polygon fill="#F7F7F7" points="0,30.34 0,34.884 2.273,32.611 	"/>
	<polygon fill="#F7F7F7" points="0,52 0,56.548 2.273,54.273 	"/>
	<polygon fill="#F7F7F7" points="0,8.56 0,13.106 2.273,10.833 	"/>
	<polygon fill="#F7F7F7" points="4.681,43.441 15.513,32.611 13.233,30.334 13.297,30.271 4.688,21.66 15.513,10.833 4.681,0 0,0 
		10.829,10.833 0,21.66 2.284,23.941 2.221,24.006 10.829,32.611 0,43.441 10.829,54.273 0,65.104 4.688,65.104 15.513,54.273 	"/>
	<polygon fill="#F7F7F7" points="17.92,43.441 28.752,32.611 26.474,30.334 26.536,30.271 17.927,21.66 28.752,10.833 17.92,0 
		13.238,0 24.068,10.833 13.238,21.66 15.523,23.941 15.46,24.006 24.068,32.611 13.238,43.441 24.068,54.273 13.238,65.104 
		17.927,65.104 28.752,54.273 	"/>
	<polygon fill="#F7F7F7" points="31.159,43.441 41.991,32.611 39.713,30.334 39.775,30.271 31.166,21.66 41.991,10.833 31.159,0 
		26.479,0 37.308,10.833 26.479,21.66 28.763,23.941 28.699,24.006 37.308,32.611 26.479,43.441 37.308,54.273 26.479,65.104 
		31.166,65.104 41.991,54.273 	"/>
	<polygon fill="#F7F7F7" points="52.957,8.56 44.398,0 39.718,0 50.547,10.833 39.718,21.66 42.002,23.941 41.938,24.006 
		50.547,32.611 39.718,43.441 50.547,54.273 39.718,65.104 44.404,65.104 52.957,56.548 52.957,52 44.398,43.441 52.957,34.884 
		52.957,30.339 52.952,30.334 52.957,30.329 52.957,30.214 44.404,21.66 52.957,13.106 	"/>
</g>
</svg>
