<?xml version="1.0" encoding="utf-8"?>
<!-- Generator: Adobe Illustrator 16.0.0, SVG Export Plug-In . SVG Version: 6.00 Build 0)  -->
<!DOCTYPE svg PUBLIC "-//W3C//DTD SVG 1.1//EN" "http://www.w3.org/Graphics/SVG/1.1/DTD/svg11.dtd">
<svg version="1.1" id="Layer_1" xmlns="http://www.w3.org/2000/svg" xmlns:xlink="http://www.w3.org/1999/xlink" x="0px" y="0px"
	 width="50.08px" height="50.08px" viewBox="0 0 50.08 50.08" enable-background="new 0 0 50.08 50.08" xml:space="preserve">
<g>
	<g>
		<g>
			<path fill="#949494" d="M31.355,37.059c-1.466,0-2.605,1.203-2.605,2.669c0,1.466,1.203,2.669,2.605,2.669
				c1.401,0,2.604-1.203,2.604-2.669C33.96,38.262,32.757,37.059,31.355,37.059L31.355,37.059z M31.355,41.059
				c-0.736,0-1.268-0.602-1.268-1.338c0-0.735,0.602-1.336,1.268-1.336c0.665,0,1.267,0.602,1.267,1.336
				C32.623,40.458,32.021,41.059,31.355,41.059L31.355,41.059z M31.355,41.059"/>
			<path fill="#949494" d="M17.142,37.059c-1.465,0-2.604,1.203-2.604,2.669c0,1.466,1.203,2.669,2.604,2.669
				c1.466,0,2.604-1.203,2.604-2.669C19.746,38.262,18.544,37.059,17.142,37.059L17.142,37.059z M17.142,41.059
				c-0.735,0-1.267-0.602-1.267-1.338c0-0.735,0.602-1.336,1.267-1.336c0.737,0,1.269,0.602,1.269,1.336
				C18.41,40.463,17.814,41.059,17.142,41.059L17.142,41.059z M17.142,41.059"/>
			<path fill="#949494" d="M37.627,11.04L36.59,15.11H10.404l4.83,14.314c-1.618,0.238-2.828,1.607-2.828,3.367
				c0,1.932,1.464,3.469,3.334,3.469h18.148v-1.269H15.74c-1.133,0-2.002-0.934-2.002-2.137s0.934-2.139,2.002-2.139h18.213
				l4.735-18.346h2.669V11.04H37.627z M32.955,29.387H16.611l-4.339-12.945h23.952L32.955,29.387z M32.955,29.387"/>
			<rect x="18.877" y="19.577" fill="#949494" width="1.337" height="7.539"/>
			<rect x="23.618" y="19.577" fill="#949494" width="1.336" height="7.539"/>
			<rect x="28.354" y="19.577" fill="#949494" width="1.338" height="7.539"/>
		</g>
	</g>
	<g>
		<path fill="#949494" d="M25.041,50.08C11.234,50.08,0,38.846,0,25.04C0,11.232,11.234,0,25.041,0
			C38.849,0,50.08,11.232,50.08,25.04C50.08,38.846,38.849,50.08,25.041,50.08z M25.041,1.274
			c-13.104,0-23.766,10.662-23.766,23.765s10.662,23.766,23.766,23.766S48.807,38.143,48.807,25.04S38.145,1.274,25.041,1.274z"/>
	</g>
</g>
</svg>
