<?xml version="1.0" encoding="utf-8"?>
<!-- Generator: Adobe Illustrator 16.0.0, SVG Export Plug-In . SVG Version: 6.00 Build 0)  -->
<!DOCTYPE svg PUBLIC "-//W3C//DTD SVG 1.1//EN" "http://www.w3.org/Graphics/SVG/1.1/DTD/svg11.dtd">
<svg version="1.1" id="Layer_1" xmlns="http://www.w3.org/2000/svg" xmlns:xlink="http://www.w3.org/1999/xlink" x="0px" y="0px"
	 width="12.135px" height="14.916px" viewBox="0 0 12.135 14.916" enable-background="new 0 0 12.135 14.916" xml:space="preserve">
<g>
	<g>
		<path fill="#78C8C9" d="M8.479,14.916H0V0h12.135v11.262L8.479,14.916z M1,13.916h7.064l3.07-3.068V1H1V13.916z"/>
	</g>
	<g>
		<path fill="#78C8C9" d="M8.625,14.77l-0.707-0.707l0.354,0.354l-0.477-0.135c0.041-0.24,0.02-1.836-0.023-3.242l-0.016-0.516
			h3.879v1H8.787C8.872,14.523,8.796,14.599,8.625,14.77z"/>
	</g>
	<g>
		<g>
			<path fill="#78C8C9" d="M6.066,5.916c-0.999,0-1.811-0.813-1.811-1.812c0-0.997,0.812-1.809,1.811-1.809s1.811,0.812,1.811,1.809
				C7.877,5.103,7.065,5.916,6.066,5.916z M6.066,3.295c-0.447,0-0.811,0.363-0.811,0.809c0,0.448,0.364,0.812,0.811,0.812
				s0.811-0.364,0.811-0.812C6.877,3.658,6.513,3.295,6.066,3.295z"/>
		</g>
		<g>
			<path fill="#78C8C9" d="M9.598,9.59h-1c0-1.395-1.136-2.529-2.531-2.529S3.535,8.195,3.535,9.59h-1
				c0-1.946,1.584-3.529,3.531-3.529S9.598,7.644,9.598,9.59z"/>
		</g>
	</g>
</g>
</svg>
