<?xml version="1.0" encoding="utf-8"?>
<!-- Generator: Adobe Illustrator 16.0.0, SVG Export Plug-In . SVG Version: 6.00 Build 0)  -->
<!DOCTYPE svg PUBLIC "-//W3C//DTD SVG 1.1//EN" "http://www.w3.org/Graphics/SVG/1.1/DTD/svg11.dtd">
<svg version="1.1" id="Layer_1" xmlns="http://www.w3.org/2000/svg" xmlns:xlink="http://www.w3.org/1999/xlink" x="0px" y="0px"
	 width="84.049px" height="30px" viewBox="0 0 84.049 30" enable-background="new 0 0 84.049 30" xml:space="preserve">
<g>
	<path fill="#4867AA" d="M35.661,13.573c-0.516-0.288-1.07-0.276-1.572,0.044c-0.475,0.302-0.542,0.8-0.555,1.336
		c0.898,0,1.763,0,2.674,0C36.222,14.389,36.183,13.865,35.661,13.573z"/>
	<path fill="#4867AA" d="M19.987,13.614c-0.739-0.029-1.295,0.331-1.393,1.077c-0.093,0.706-0.09,1.443,0.004,2.149
		c0.096,0.721,0.675,1.093,1.379,1.054c0.708-0.04,1.177-0.463,1.287-1.186c0.048-0.313,0.062-0.633,0.092-0.953
		c-0.029-0.318-0.044-0.637-0.092-0.951C21.156,14.078,20.678,13.642,19.987,13.614z"/>
	<path fill="#4867AA" d="M53.09,14.999c-0.081-0.854-0.604-1.37-1.388-1.385c-0.823-0.017-1.37,0.466-1.443,1.348
		c-0.046,0.559-0.042,1.129,0.012,1.687c0.073,0.764,0.595,1.211,1.354,1.246c0.707,0.032,1.237-0.364,1.401-1.099
		c0.074-0.332,0.073-0.68,0.105-1.021c-0.013-0.001-0.026-0.002-0.039-0.003C53.094,15.515,53.114,15.255,53.09,14.999z"/>
	<path fill="#4867AA" d="M43.215,13.614c-0.75-0.019-1.311,0.392-1.4,1.176c-0.076,0.662-0.067,1.352,0.027,2.012
		c0.103,0.72,0.616,1.079,1.318,1.094c0.694,0.014,1.19-0.338,1.374-1.041c0.091-0.352,0.092-0.726,0.121-0.973
		c-0.023-0.415-0.019-0.712-0.058-1.003C44.49,14.095,43.975,13.633,43.215,13.614z"/>
	<path fill="#4867AA" d="M0,0v30h84.049V0H0z M15.949,12.221c-0.076,0.396-0.087,0.806-0.112,1.211
		c-0.02,0.324-0.142,0.488-0.5,0.455c-0.317-0.029-0.64,0.007-0.959-0.01c-0.271-0.014-0.369,0.086-0.365,0.36
		c0.013,0.849,0.005,1.697,0.004,2.546c0,0.849-0.007,1.698,0.004,2.547c0.003,0.254-0.08,0.349-0.338,0.342
		c-0.565-0.015-1.132-0.019-1.697,0.001c-0.305,0.011-0.401-0.092-0.399-0.397c0.013-1.648-0.004-3.297,0.014-4.945
		c0.004-0.357-0.102-0.486-0.458-0.455c-0.281,0.025-0.566,0.001-0.848,0.003c-0.199,0.001-0.293-0.092-0.292-0.291
		c0.002-0.492,0.002-0.983,0-1.476c-0.001-0.202,0.099-0.287,0.295-0.286c0.32,0.003,0.641-0.011,0.96,0
		c0.254,0.009,0.351-0.092,0.339-0.349c-0.016-0.344-0.008-0.688-0.001-1.032c0.033-1.623,0.79-2.498,2.394-2.681
		c0.568-0.064,1.152,0.014,1.729,0.022c0.216,0.003,0.302,0.101,0.296,0.319c-0.011,0.431-0.017,0.862,0.001,1.292
		c0.012,0.271-0.116,0.34-0.352,0.338c-0.307-0.004-0.616-0.006-0.922,0.015c-0.442,0.03-0.625,0.193-0.669,0.629
		c-0.038,0.378-0.034,0.761-0.055,1.141c-0.012,0.224,0.092,0.308,0.308,0.305c0.418-0.006,0.836,0.005,1.255-0.002
		C15.862,11.816,16.017,11.869,15.949,12.221z M23.412,19.671c-0.541-0.012-1.083-0.019-1.623,0.003
		c-0.3,0.012-0.4-0.104-0.374-0.386c0.015-0.157,0.002-0.316,0.002-0.561c-1.126,1.7-4.302,1.457-5.079-0.887
		c-0.457-1.381-0.471-2.79,0.002-4.165c0.542-1.577,2.148-2.354,3.749-1.886c0.541,0.158,0.949,0.494,1.312,1
		c0.009-0.122,0.016-0.177,0.016-0.231c0.006-0.736,0.006-0.736,0.729-0.735c0.43,0.001,0.86,0.006,1.291,0.001
		c0.227-0.003,0.324,0.077,0.324,0.324c-0.008,2.398-0.008,4.797,0,7.195C23.764,19.614,23.654,19.677,23.412,19.671z
		 M30.628,19.422c-0.368,0.131-0.741,0.272-1.124,0.331c-0.844,0.131-1.691,0.118-2.519-0.127c-1.268-0.377-2.043-1.216-2.327-2.511
		c-0.186-0.852-0.189-1.712-0.037-2.562c0.294-1.642,1.453-2.663,3.135-2.837c0.93-0.096,1.838-0.052,2.721,0.283
		c0.303,0.115,0.434,0.262,0.297,0.605c-0.17,0.428-0.288,0.877-0.417,1.28c-0.555-0.1-1.055-0.247-1.561-0.269
		c-1.149-0.05-1.766,0.561-1.8,1.705c-0.008,0.282-0.007,0.565,0.001,0.848c0.037,1.25,0.834,1.914,2.078,1.713
		c0.408-0.065,0.809-0.182,1.281-0.29c0.156,0.505,0.33,1.035,0.473,1.574C30.846,19.232,30.718,19.39,30.628,19.422z M38.03,16.635
		c-1.354-0.016-2.708-0.007-4.061-0.007c-0.132,0-0.264,0-0.394,0c-0.032,0.81,0.383,1.291,1.164,1.363
		c0.892,0.083,1.768-0.001,2.621-0.285c0.136-0.045,0.276-0.076,0.446-0.122c0.138,0.518,0.282,0.998,0.384,1.488
		c0.018,0.084-0.122,0.269-0.22,0.297c-0.542,0.155-1.087,0.352-1.642,0.391c-0.803,0.057-1.628,0.082-2.42-0.04
		c-1.619-0.249-2.532-1.153-2.748-2.78c-0.117-0.876-0.097-1.803,0.05-2.675c0.242-1.439,1.403-2.394,2.927-2.534
		c0.558-0.052,1.138-0.065,1.687,0.029c1.461,0.252,2.362,1.232,2.543,2.72c0.069,0.571,0.043,1.153,0.082,1.729
		C38.469,16.53,38.357,16.638,38.03,16.635z M46.666,18.1c-0.774,1.834-2.816,2.018-4.017,1.476
		c-0.369-0.167-0.675-0.472-1.021-0.722c0.008-0.021-0.006,0-0.007,0.021c-0.036,0.793-0.036,0.793-0.846,0.793
		c-0.369,0-0.739-0.015-1.107,0.004c-0.287,0.016-0.392-0.081-0.386-0.376c0.015-0.886,0.005-1.771,0.005-2.657
		c0-2.731,0.007-5.462-0.009-8.193c-0.002-0.375,0.103-0.522,0.482-0.538c0.564-0.023,1.127-0.088,1.688-0.15
		c0.31-0.035,0.307,0.158,0.307,0.367c-0.001,1.304,0,2.608,0,3.912c0,0.183,0,0.365,0,0.551c0.051,0,0.087,0.009,0.095-0.002
		c1.032-1.413,3.923-1.261,4.799,0.78C47.318,14.925,47.323,16.542,46.666,18.1z M55.443,17.054
		c-0.362,1.604-1.545,2.643-3.185,2.742c-0.583,0.035-1.189,0.022-1.757-0.1c-1.617-0.348-2.628-1.606-2.719-3.286
		c-0.012-0.221-0.001-0.442-0.001-0.663c-0.021-0.003-0.041-0.005-0.061-0.008c0.067-0.483,0.093-0.979,0.21-1.45
		c0.321-1.292,1.151-2.116,2.436-2.458c0.934-0.249,1.876-0.234,2.798,0.061c1.184,0.378,1.931,1.195,2.24,2.387
		C55.644,15.194,55.652,16.127,55.443,17.054z M63.907,17.019c-0.283,1.624-1.6,2.713-3.256,2.79
		c-0.184,0.009-0.369,0.001-0.553,0.001c-1.519-0.003-2.774-0.495-3.476-1.948c-0.396-0.82-0.44-1.704-0.384-2.594
		c0.02-0.317,0.064-0.638,0.142-0.945c0.368-1.464,1.479-2.457,2.998-2.586c0.675-0.058,1.385-0.039,2.042,0.108
		c1.473,0.33,2.468,1.536,2.564,3.05C64.029,15.6,64.028,16.326,63.907,17.019z M69.669,19.648
		c-0.104-0.003-0.226-0.171-0.301-0.287c-0.619-0.962-1.229-1.93-1.842-2.895c-0.071-0.112-0.147-0.221-0.278-0.416
		c0,0.667,0.009,1.238-0.002,1.81c-0.011,0.585-0.041,1.17-0.062,1.755c-0.586,0.018-1.173,0.035-1.76,0.052
		c-0.11,0.003-0.222-0.007-0.332,0.002c-0.221,0.018-0.317-0.082-0.312-0.3c0.005-0.185,0-0.369,0-0.554
		c0-3.445,0.006-6.891-0.008-10.336c-0.001-0.38,0.08-0.557,0.491-0.57c0.564-0.019,1.127-0.088,1.688-0.15
		c0.317-0.034,0.296,0.168,0.296,0.372c0,2.178,0,4.356,0,6.534c0,0.192,0,0.386,0,0.578c0.025,0.003,0.051,0.005,0.076,0.008
		c0.646-1.03,1.299-2.057,1.931-3.096c0.147-0.241,0.316-0.342,0.594-0.336c0.59,0.014,1.181,0.002,1.772,0.006
		c0.116,0.001,0.233,0.025,0.41,0.047c-0.096,0.166-0.157,0.281-0.227,0.392c-0.664,1.05-1.322,2.104-2,3.144
		c-0.144,0.222-0.14,0.375,0.003,0.592c0.709,1.079,1.401,2.169,2.098,3.257c0.069,0.108,0.125,0.225,0.224,0.406
		C71.258,19.662,70.463,19.673,69.669,19.648z"/>
	<path fill="#4867AA" d="M60.141,13.614c-0.711-0.006-1.227,0.385-1.375,1.088c-0.073,0.346-0.08,0.704-0.117,1.062
		c0.036,0.342,0.044,0.688,0.113,1.021c0.148,0.718,0.623,1.083,1.363,1.09c0.735,0.006,1.273-0.355,1.363-1.076
		c0.086-0.686,0.084-1.396,0.003-2.082C61.408,14.008,60.855,13.62,60.141,13.614z"/>
</g>
</svg>
