<?xml version="1.0" encoding="utf-8"?>
<!-- Generator: Adobe Illustrator 16.0.0, SVG Export Plug-In . SVG Version: 6.00 Build 0)  -->
<!DOCTYPE svg PUBLIC "-//W3C//DTD SVG 1.1//EN" "http://www.w3.org/Graphics/SVG/1.1/DTD/svg11.dtd">
<svg version="1.1" id="Layer_1" xmlns="http://www.w3.org/2000/svg" xmlns:xlink="http://www.w3.org/1999/xlink" x="0px" y="0px"
	 width="84.049px" height="30px" viewBox="0 0 84.049 30" enable-background="new 0 0 84.049 30" xml:space="preserve">
<g>
	<path fill="#DC4E41" d="M42.266,14.693c-1.162,0-2.054,0.929-2.054,2.172c0,1.27,0.903,2.188,2.049,2.188
		c1.042,0,2.017-0.86,2.017-2.178C44.278,15.529,43.299,14.693,42.266,14.693z"/>
	<path fill="#DC4E41" d="M34.42,14.693c-1.161,0-2.053,0.929-2.053,2.172c0,1.27,0.903,2.188,2.049,2.188
		c1.042,0,2.017-0.86,2.017-2.178C36.433,15.529,35.454,14.693,34.42,14.693z"/>
	<path fill="#DC4E41" d="M50.079,14.694c-1.012,0-2.006,0.822-2.006,2.199c0,1.326,0.957,2.161,1.985,2.161
		c0.969,0,1.938-0.772,1.938-2.174C51.996,15.502,51.025,14.694,50.079,14.694z"/>
	<path fill="#DC4E41" d="M0,0v30h84.049V0H0z M25.12,20.467c-3.398,0-5.707-2.763-5.707-5.596c0-2.892,2.454-5.568,5.625-5.568
		c2.491,0,3.856,1.521,3.856,1.521l-1.064,1.102c0,0-1.015-1.099-2.738-1.099c-2.233,0-4.015,1.772-4.015,4.072
		c0,2.361,1.869,4.045,4.01,4.045c1.674,0,3.446-0.908,3.625-3.039h-3.632v-1.52h5.122c0,0.002,0.093,0.37,0.093,1.008
		C30.297,18.42,28.109,20.467,25.12,20.467z M34.424,20.461c-2.171,0-3.632-1.674-3.632-3.618c0-1.916,1.506-3.559,3.607-3.559
		c1.728,0,3.601,1.224,3.601,3.601C38,18.958,36.389,20.461,34.424,20.461z M42.269,20.461c-2.171,0-3.632-1.674-3.632-3.618
		c0-1.916,1.506-3.559,3.608-3.559c1.727,0,3.6,1.224,3.6,3.601C45.845,18.958,44.235,20.461,42.269,20.461z M53.379,19.952
		c0,2.533-1.461,3.74-3.379,3.74c-1.753,0-2.738-1.078-3.228-2.113l1.379-0.576c0.191,0.463,0.741,1.277,1.837,1.277
		c1.134,0,1.886-0.741,1.886-1.979v-0.707c-0.402,0.466-0.945,0.871-1.968,0.871c-1.654,0-3.412-1.432-3.412-3.592
		c0-1.896,1.517-3.586,3.445-3.586v0.001c0.839,0,1.472,0.325,1.935,0.823v-0.607h1.504V19.952z M56.008,20.251h-1.58V9.674h1.58
		V20.251z M60.25,19.051c0.898,0,1.437-0.488,1.758-0.987l1.241,0.825c-0.556,0.744-1.488,1.574-3.006,1.574
		c-1.819,0-3.522-1.34-3.522-3.601c0-2.136,1.528-3.583,3.348-3.583c1.435,0,2.52,0.957,2.984,2.104l0.25,0.584l-4.812,1.997
		C58.778,18.498,59.242,19.051,60.25,19.051z"/>
	<path fill="#DC4E41" d="M60.131,14.659c-1.039,0-2.023,1.069-1.885,2.109l3.213-1.343C61.258,15.008,60.787,14.659,60.131,14.659z"
		/>
</g>
</svg>
