<?xml version="1.0" encoding="utf-8"?>
<!-- Generator: Adobe Illustrator 16.0.0, SVG Export Plug-In . SVG Version: 6.00 Build 0)  -->
<!DOCTYPE svg PUBLIC "-//W3C//DTD SVG 1.1//EN" "http://www.w3.org/Graphics/SVG/1.1/DTD/svg11.dtd">
<svg version="1.1" id="Layer_1" xmlns="http://www.w3.org/2000/svg" xmlns:xlink="http://www.w3.org/1999/xlink" x="0px" y="0px"
	 width="32.402px" height="32.397px" viewBox="0 0 32.402 32.397" enable-background="new 0 0 32.402 32.397" xml:space="preserve">
<g>
	<g>
		<path fill="#78C8C9" d="M23.129,0H9.269C4.161,0,0,4.16,0,9.273v13.851c0,5.114,4.161,9.273,9.269,9.273h13.86
			c5.112,0,9.273-4.159,9.273-9.273V9.273C32.402,4.16,28.241,0,23.129,0z M30.154,23.124c0,3.88-3.153,7.028-7.025,7.028H9.269
			c-3.868,0-7.026-3.148-7.026-7.028V9.273c0-3.875,3.158-7.031,7.026-7.031h13.86c3.872,0,7.025,3.156,7.025,7.031V23.124z"/>
		<path fill="#78C8C9" d="M16.066,7.639c-4.724,0-8.56,3.837-8.56,8.56c0,4.72,3.836,8.558,8.56,8.558
			c4.719,0,8.555-3.838,8.555-8.558C24.621,11.476,20.785,7.639,16.066,7.639z M16.066,21.494c-2.925,0-5.3-2.376-5.3-5.296
			s2.375-5.298,5.3-5.298c2.92,0,5.296,2.378,5.296,5.298S18.986,21.494,16.066,21.494z"/>
		<path fill="#78C8C9" d="M24.438,4.783c-1.24,0-2.248,1.002-2.248,2.242c0,1.243,1.007,2.243,2.248,2.243
			c1.236,0,2.243-1,2.243-2.243C26.681,5.785,25.673,4.783,24.438,4.783z"/>
	</g>
</g>
</svg>
