<?xml version="1.0" encoding="utf-8"?>
<!-- Generator: Adobe Illustrator 16.0.0, SVG Export Plug-In . SVG Version: 6.00 Build 0)  -->
<!DOCTYPE svg PUBLIC "-//W3C//DTD SVG 1.1//EN" "http://www.w3.org/Graphics/SVG/1.1/DTD/svg11.dtd">
<svg version="1.1" id="Layer_1" xmlns="http://www.w3.org/2000/svg" xmlns:xlink="http://www.w3.org/1999/xlink" x="0px" y="0px"
	 width="13.826px" height="13.825px" viewBox="0 0 13.826 13.825" enable-background="new 0 0 13.826 13.825" xml:space="preserve">
<g>
	<path fill="#FFFFFF" d="M9.87,0H3.956C1.776,0,0,1.776,0,3.957v5.91c0,2.184,1.776,3.958,3.956,3.958H9.87
		c2.181,0,3.956-1.774,3.956-3.958v-5.91C13.826,1.776,12.05,0,9.87,0z M12.868,9.867c0,1.656-1.345,3-2.998,3H3.956
		c-1.652,0-2.999-1.344-2.999-3v-5.91c0-1.653,1.347-3,2.999-3H9.87c1.653,0,2.998,1.346,2.998,3V9.867z"/>
	<path fill="#FFFFFF" d="M6.855,3.261c-2.015,0-3.653,1.637-3.653,3.651c0,2.014,1.638,3.652,3.653,3.652
		c2.013,0,3.65-1.638,3.65-3.652C10.506,4.897,8.869,3.261,6.855,3.261z M6.855,9.173c-1.248,0-2.261-1.014-2.261-2.261
		c0-1.246,1.014-2.26,2.261-2.26c1.246,0,2.26,1.015,2.26,2.26C9.116,8.159,8.101,9.173,6.855,9.173z"/>
	<circle fill="#FFFFFF" cx="10.428" cy="2.999" r="0.957"/>
</g>
</svg>
