<?xml version="1.0" encoding="utf-8"?>
<!-- Generator: Adobe Illustrator 16.0.0, SVG Export Plug-In . SVG Version: 6.00 Build 0)  -->
<!DOCTYPE svg PUBLIC "-//W3C//DTD SVG 1.1//EN" "http://www.w3.org/Graphics/SVG/1.1/DTD/svg11.dtd">
<svg version="1.1" id="Layer_1" xmlns="http://www.w3.org/2000/svg" xmlns:xlink="http://www.w3.org/1999/xlink" x="0px" y="0px"
	 width="294.79px" height="53.931px" viewBox="0 0 294.79 53.931" enable-background="new 0 0 294.79 53.931" xml:space="preserve">
<g>
	<g>
		<polygon fill="#FFFFFF" points="2.455,49.05 2.455,49.296 2.455,50.261 2.455,50.502 9.049,50.502 9.049,50.261 9.049,49.296 
			9.049,49.05 		"/>
		<g>
			<path fill="#FFFFFF" d="M20.853,50.304l-2.482,3.498h-1.103v-6.446h1.472v3.497l2.484-3.497h1.102v6.446h-1.472V50.304z"/>
			<path fill="#FFFFFF" d="M35.75,48.777h-1.658v5.025h-1.47v-5.025h-1.659v-1.421h4.786V48.777z"/>
			<path fill="#FFFFFF" d="M47.698,52.79h-2.393l-0.321,1.013h-1.608l2.187-6.446h1.878l2.186,6.446h-1.61L47.698,52.79z
				 M47.256,51.41l-0.757-2.363l-0.751,2.363H47.256z"/>
			<path fill="#FFFFFF" d="M57.806,52.419c0.661,0.102,1.067-0.099,1.067-1.176v-3.888h4.454v6.446h-1.472v-5.025h-1.508v2.412
				c0,2.301-1.356,2.742-2.541,2.613V52.419z"/>
			<path fill="#FFFFFF" d="M77.113,51.596c0,1.222-0.981,2.206-2.255,2.206H72.42v-6.446h1.473v2.032h0.965
				C76.132,49.388,77.113,50.371,77.113,51.596z M75.644,51.596c0-0.472-0.334-0.831-0.786-0.831h-0.965v1.654h0.965
				C75.31,52.419,75.644,52.065,75.644,51.596z"/>
			<path fill="#FFFFFF" d="M90.306,53.802h-1.473v-2.113h-0.469l-1.368,2.113h-1.659l1.51-2.304
				c-0.782-0.328-1.328-1.091-1.328-1.926c0-1.229,0.987-2.217,2.211-2.217h2.574V53.802z M88.833,50.398v-1.654h-1.102
				c-0.407,0-0.735,0.357-0.735,0.829c0,0.466,0.329,0.825,0.735,0.825H88.833z"/>
			<path fill="#FFFFFF" d="M104.373,47.356v6.446h-1.475v-2.559h-2.023v2.559h-1.468v-6.446h1.468v2.472h2.023v-2.472H104.373z"/>
			<path fill="#FFFFFF" d="M113.193,50.58c0-1.893,1.41-3.354,3.349-3.354c1.168,0,2.199,0.584,2.758,1.496l-1.265,0.735
				c-0.29-0.493-0.838-0.792-1.494-0.792c-1.139,0-1.879,0.764-1.879,1.914s0.74,1.914,1.879,1.914c0.655,0,1.216-0.292,1.494-0.788
				l1.265,0.733c-0.548,0.91-1.581,1.492-2.758,1.492C114.603,53.931,113.193,52.476,113.193,50.58z"/>
			<path fill="#FFFFFF" d="M131.518,53.802l-2.062-2.984v2.984h-1.469v-6.446h1.469v2.802l1.971-2.802h1.671l-2.167,3.142
				l2.265,3.305H131.518z"/>
			<path fill="#FFFFFF" d="M145.325,50.304l-2.483,3.498h-1.102v-6.446h1.472v3.497l2.484-3.497h1.104v6.446h-1.474V50.304z"/>
			<path fill="#FFFFFF" d="M159.483,50.304l-2.486,3.498h-1.102v-6.446h1.473v3.497l2.486-3.497h1.102v6.446h-1.473V50.304z
				 M157.046,45.625h2.762v1.195h-2.762V45.625z"/>
			<path fill="#FFFFFF" d="M185.038,49.573c0,1.222-0.986,2.206-2.256,2.206h-0.963v2.023h-1.472v-6.446h2.435
				C184.052,47.356,185.038,48.343,185.038,49.573z M183.564,49.573c0-0.472-0.329-0.829-0.782-0.829h-0.963v1.654h0.963
				C183.235,50.398,183.564,50.039,183.564,49.573z"/>
			<path fill="#FFFFFF" d="M197.814,52.384v1.418h-4.048v-6.446h4.006v1.421h-2.537v1.067h2.307v1.399h-2.307v1.141H197.814z"/>
			<path fill="#FFFFFF" d="M206.314,50.58c0-1.893,1.405-3.354,3.354-3.354c1.164,0,2.196,0.584,2.758,1.496l-1.271,0.735
				c-0.287-0.493-0.834-0.792-1.487-0.792c-1.145,0-1.88,0.764-1.88,1.914s0.735,1.914,1.88,1.914c0.653,0,1.213-0.292,1.487-0.788
				l1.271,0.733c-0.552,0.91-1.586,1.492-2.758,1.492C207.72,53.931,206.314,52.476,206.314,50.58z"/>
			<path fill="#FFFFFF" d="M225.434,48.777h-1.661v5.025h-1.467v-5.025h-1.658v-1.421h4.786V48.777z"/>
			<path fill="#FFFFFF" d="M233.423,50.58c0-1.893,1.501-3.354,3.348-3.354c1.852,0,3.353,1.461,3.353,3.354
				c0,1.896-1.501,3.352-3.353,3.352C234.924,53.931,233.423,52.476,233.423,50.58z M238.649,50.58c0-1.15-0.828-1.914-1.879-1.914
				c-1.047,0-1.875,0.764-1.875,1.914s0.828,1.914,1.875,1.914C237.821,52.494,238.649,51.73,238.649,50.58z"/>
			<path fill="#FFFFFF" d="M253.633,49.573c0,1.222-0.982,2.206-2.251,2.206h-0.966v2.023h-1.471v-6.446h2.437
				C252.65,47.356,253.633,48.343,253.633,49.573z M252.163,49.573c0-0.472-0.33-0.829-0.781-0.829h-0.966v1.654h0.966
				C251.833,50.398,252.163,50.039,252.163,49.573z"/>
			<path fill="#FFFFFF" d="M265.494,52.79h-2.394l-0.322,1.013h-1.607l2.188-6.446h1.876l2.194,6.446h-1.613L265.494,52.79z
				 M265.05,51.41l-0.753-2.363l-0.751,2.363H265.05z"/>
			<path fill="#FFFFFF" d="M280.94,47.356v6.446h-1.475v-2.559h-2.025v2.559h-1.471v-6.446h1.471v2.472h2.025v-2.472H280.94z"/>
		</g>
		<polygon fill="#FFFFFF" points="288.195,49.05 288.195,49.296 288.195,50.261 288.195,50.502 294.79,50.502 294.79,50.261 
			294.79,49.296 294.79,49.05 		"/>
	</g>
	<g>
		<path fill="#FDD71F" d="M98.071,0.526L92.296,19.76h-1.965v1.456h1.527l-2.085,6.948h-1.309v1.458h3.73v-1.458h-0.903l2.088-6.948
			h11.287l2.679,8.406h7.043l-9.27-29.095H98.071z M93.816,19.76l5.035-16.77l5.351,16.77H93.816z"/>
		<path fill="#FDD71F" d="M196.78,0.526h-12.822v15.615h-3.305l-0.002,1.45h0.002v0.005h3.305v12.025h6.615V17.596l6.207-0.005
			c4.272,0,7.73-3.462,7.73-7.73V8.258C204.511,3.989,201.053,0.526,196.78,0.526z M199.341,9.639c0,3.563-3.154,6.442-7.055,6.502
			h-1.713V1.703h1.713c3.9,0.057,7.055,2.94,7.055,6.499V9.639z"/>
		<path fill="#FDD71F" d="M81.929,0.526v1.456h1.555V19.25L63.078,0.526h-2.136v1.456h1.569v27.639h1.456V10.936l20.971,19.236
			l0.004-28.189h1.405V0.526H81.929z"/>
		<polygon fill="#FDD71F" points="266.733,0.526 262.315,0.526 262.315,1.982 263.87,1.982 263.87,19.25 243.463,0.526 
			241.331,0.526 241.331,1.982 242.899,1.982 242.899,29.622 244.353,29.622 244.353,10.936 265.323,30.171 265.328,1.982 
			266.733,1.982 		"/>
		<path fill="#FDD71F" d="M285.054,21.216l2.678,8.406h7.045l-9.271-29.095h-6.955h-0.092l-5.775,19.233h-1.963v1.456h1.527
			l-2.086,6.948h-1.311v1.458h3.731v-1.458h-0.9l2.085-6.948H285.054z M274.206,19.76l5.036-16.77l5.346,16.77H274.206z"/>
		<path fill="#FDD71F" d="M163.552,0.526h-0.092l-5.774,19.233h-1.966v1.456h1.53l-2.089,6.948h-1.309v1.458h3.729v-1.458h-0.899
			l2.085-6.948h11.288l2.679,8.406h7.044l-9.27-29.095H163.552z M159.207,19.76l5.035-16.77l5.349,16.77H159.207z"/>
		<path fill="#FDD71F" d="M17.616,13.905c2.487-1.022,4.235-3.464,4.235-6.317V7.354c0-3.772-3.054-6.827-6.82-6.827H2.716v12.877H0
			v1.454h2.716v14.764h14.698c4.267,0,7.729-3.466,7.729-7.732v-0.267C25.143,17.422,21.792,14.012,17.616,13.905z M9.701,1.678
			l1.581,0.025c3.188,0.261,5.696,2.729,5.696,5.721v0.219c0,2.998-2.508,5.466-5.696,5.73l-1.581,0.02V1.678z M18.982,21.762
			c0,3.675-3.181,6.654-7.113,6.685H9.701V14.857h2.284c3.878,0.089,6.997,3.036,6.997,6.674V21.762z"/>
		<path fill="#FDD71F" d="M150.156,3.309c-2.532-1.976-5.705-3.168-9.164-3.168c-8.23,0-14.9,6.672-14.9,14.9
			c0,8.23,6.669,14.898,14.9,14.898c4.115,0,7.837-1.666,10.536-4.36l-0.814-0.793c-2.58,2.375-5.877,3.993-9.721,3.993
			c-0.327,0-0.647-0.025-0.966-0.043c-3.134-0.299-5.811-2.775-5.811-5.83V7.246c0-3.251,3.103-5.941,6.494-5.941
			c0,0,0.173,0,0.284,0c3.723,0,6.577,1.38,9.124,3.623h1.586V1.982h-0.857L150.156,3.309z"/>
		<path fill="#FDD71F" d="M43.121,0c-8.299,0-15.057,6.754-15.057,15.06c0,8.304,6.757,15.059,15.057,15.059
			c8.305,0,15.06-6.755,15.06-15.059C58.18,6.754,51.425,0,43.121,0z M52.743,15.787h-2.689v6.206c0-0.132-0.036,1.206-0.046,1.08
			c-0.237,3.272-3.214,5.87-6.887,5.87c-3.68,0-6.656-2.604-6.887-5.885c-0.01,0.134-0.045-0.781-0.045-0.648v-6.623h-2.725v-1.455
			l0,0h2.725V7.623c0,0.128,0.035-0.672,0.042-0.542c0.224-3.29,3.205-5.904,6.889-5.904c3.679,0,6.66,2.606,6.889,5.89
			c0.008-0.125,0.044,1.319,0.044,1.194v6.072h2.689V15.787z"/>
		<path fill="#FDD71F" d="M223.438,0c-8.301,0-15.055,6.754-15.055,15.06c0,8.304,6.754,15.059,15.055,15.059
			c8.305,0,15.061-6.755,15.061-15.059C238.499,6.754,231.743,0,223.438,0z M233.062,15.787h-2.689v6.206
			c0-0.132-0.035,1.206-0.048,1.08c-0.235,3.272-3.212,5.87-6.886,5.87c-3.678,0-6.654-2.604-6.887-5.885
			c-0.011,0.134-0.043-0.781-0.043-0.648v-6.623h-2.726v-1.455l0,0h2.726V7.623c0,0.128,0.032-0.672,0.043-0.542
			c0.221-3.29,3.203-5.904,6.887-5.904c3.68,0,6.659,2.606,6.889,5.89c0.01-0.125,0.045,1.319,0.045,1.194v6.072h2.689V15.787z"/>
	</g>
</g>
</svg>
