<?xml version="1.0" encoding="utf-8"?>
<!-- Generator: Adobe Illustrator 16.0.0, SVG Export Plug-In . SVG Version: 6.00 Build 0)  -->
<!DOCTYPE svg PUBLIC "-//W3C//DTD SVG 1.1//EN" "http://www.w3.org/Graphics/SVG/1.1/DTD/svg11.dtd">
<svg version="1.1" id="Layer_1" xmlns="http://www.w3.org/2000/svg" xmlns:xlink="http://www.w3.org/1999/xlink" x="0px" y="0px"
	 width="229.456px" height="41.979px" viewBox="0 0 229.456 41.979" enable-background="new 0 0 229.456 41.979"
	 xml:space="preserve">
<g>
	<g>
		<g>
			<polygon fill="#FFFFFF" points="1.909,38.18 1.909,38.371 1.909,39.123 1.909,39.309 7.043,39.309 7.043,39.123 7.043,38.371 
				7.043,38.18 			"/>
			<g>
				<path fill="#FFFFFF" d="M16.231,39.156l-1.934,2.723H13.44v-5.018h1.146v2.723l1.934-2.723h0.857v5.018h-1.146V39.156z"/>
				<path fill="#FFFFFF" d="M27.825,37.967h-1.289v3.913h-1.145v-3.913h-1.291v-1.105h3.725V37.967z"/>
				<path fill="#FFFFFF" d="M37.126,41.09h-1.862l-0.251,0.79h-1.251l1.702-5.018h1.461l1.701,5.018h-1.252L37.126,41.09z
					 M36.782,40.018l-0.589-1.842l-0.584,1.842H36.782z"/>
				<path fill="#FFFFFF" d="M44.994,40.803c0.515,0.08,0.831-0.076,0.831-0.916v-3.025h3.465v5.018h-1.145v-3.913h-1.174v1.877
					c0,1.791-1.057,2.135-1.978,2.036V40.803z"/>
				<path fill="#FFFFFF" d="M60.022,40.163c0,0.949-0.764,1.717-1.756,1.717h-1.897v-5.018h1.147v1.581h0.75
					C59.259,38.442,60.022,39.207,60.022,40.163z M58.878,40.163c0-0.368-0.26-0.647-0.611-0.647h-0.75v1.287h0.75
					C58.618,40.803,58.878,40.525,58.878,40.163z"/>
				<path fill="#FFFFFF" d="M70.29,41.879h-1.146v-1.645h-0.366l-1.064,1.645h-1.291l1.176-1.793c-0.609-0.258-1.033-0.85-1.033-1.5
					c0-0.957,0.768-1.725,1.721-1.725h2.004V41.879z M69.145,39.229v-1.287h-0.858c-0.316,0-0.572,0.279-0.572,0.644
					c0,0.363,0.256,0.643,0.572,0.643H69.145z"/>
				<path fill="#FFFFFF" d="M81.239,36.861v5.018h-1.147v-1.993h-1.574v1.993h-1.144v-5.018h1.144v1.924h1.574v-1.924H81.239z"/>
				<path fill="#FFFFFF" d="M88.105,39.371c0-1.473,1.097-2.609,2.607-2.609c0.909,0,1.711,0.453,2.146,1.162l-0.984,0.574
					c-0.225-0.385-0.651-0.617-1.161-0.617c-0.888,0-1.463,0.594-1.463,1.49c0,0.895,0.575,1.49,1.463,1.49
					c0.51,0,0.946-0.229,1.161-0.613l0.984,0.57c-0.426,0.709-1.23,1.16-2.146,1.16C89.202,41.979,88.105,40.848,88.105,39.371z"/>
				<path fill="#FFFFFF" d="M102.368,41.879l-1.604-2.323v2.323H99.62v-5.018h1.145v2.182l1.533-2.182h1.302l-1.688,2.445
					l1.763,2.573H102.368z"/>
				<path fill="#FFFFFF" d="M113.116,39.156l-1.932,2.723h-0.858v-5.018h1.145v2.723l1.934-2.723h0.859v5.018h-1.147V39.156z"/>
				<path fill="#FFFFFF" d="M124.136,39.156l-1.935,2.723h-0.858v-5.018h1.146v2.723l1.936-2.723h0.858v5.018h-1.147V39.156z
					 M122.239,35.514h2.148v0.93h-2.148V35.514z"/>
				<path fill="#FFFFFF" d="M144.028,38.586c0,0.951-0.77,1.717-1.757,1.717h-0.749v1.577h-1.146v-5.018h1.896
					C143.259,36.861,144.028,37.629,144.028,38.586z M142.881,38.586c0-0.365-0.257-0.644-0.609-0.644h-0.749v1.287h0.749
					C142.624,39.229,142.881,38.949,142.881,38.586z"/>
				<path fill="#FFFFFF" d="M153.973,40.775v1.104h-3.152v-5.018h3.12v1.105h-1.977v0.832h1.796v1.088h-1.796v0.889H153.973z"/>
				<path fill="#FFFFFF" d="M160.589,39.371c0-1.473,1.095-2.609,2.609-2.609c0.908,0,1.709,0.453,2.147,1.162l-0.988,0.574
					c-0.224-0.385-0.649-0.617-1.159-0.617c-0.89,0-1.462,0.594-1.462,1.49c0,0.895,0.572,1.49,1.462,1.49
					c0.509,0,0.946-0.229,1.159-0.613l0.988,0.57c-0.43,0.709-1.234,1.16-2.147,1.16C161.684,41.979,160.589,40.848,160.589,39.371z
					"/>
				<path fill="#FFFFFF" d="M175.47,37.967h-1.293v3.913h-1.141v-3.913h-1.291v-1.105h3.725V37.967z"/>
				<path fill="#FFFFFF" d="M181.688,39.371c0-1.473,1.168-2.609,2.606-2.609c1.44,0,2.608,1.137,2.608,2.609
					c0,1.477-1.168,2.607-2.608,2.607C182.856,41.979,181.688,40.848,181.688,39.371z M185.757,39.371
					c0-0.896-0.645-1.49-1.462-1.49c-0.814,0-1.46,0.594-1.46,1.49c0,0.895,0.646,1.49,1.46,1.49
					C185.112,40.861,185.757,40.266,185.757,39.371z"/>
				<path fill="#FFFFFF" d="M197.42,38.586c0,0.951-0.765,1.717-1.753,1.717h-0.751v1.577h-1.145v-5.018h1.896
					C196.655,36.861,197.42,37.629,197.42,38.586z M196.276,38.586c0-0.365-0.258-0.644-0.609-0.644h-0.751v1.287h0.751
					C196.019,39.229,196.276,38.949,196.276,38.586z"/>
				<path fill="#FFFFFF" d="M206.651,41.09h-1.862l-0.251,0.79h-1.252l1.704-5.018h1.46l1.708,5.018h-1.257L206.651,41.09z
					 M206.308,40.018l-0.588-1.842l-0.585,1.842H206.308z"/>
				<path fill="#FFFFFF" d="M218.675,36.861v5.018h-1.148v-1.993h-1.575v1.993h-1.146v-5.018h1.146v1.924h1.575v-1.924H218.675z"/>
			</g>
			<polygon fill="#FFFFFF" points="224.321,38.18 224.321,38.371 224.321,39.123 224.321,39.309 229.456,39.309 229.456,39.123 
				229.456,38.371 229.456,38.18 			"/>
		</g>
		<g>
			<path fill="#FFFFFF" d="M76.335,0.41L71.84,15.381h-1.53v1.133h1.189l-1.623,5.408h-1.02v1.135h2.904v-1.135h-0.702l1.624-5.408
				h8.785l2.086,6.543h5.482L81.82,0.41H76.335z M73.023,15.381l3.919-13.053l4.164,13.053H73.023z"/>
			<path fill="#FFFFFF" d="M153.168,0.41h-9.981v12.154h-2.573l-0.002,1.129h0.002v0.002h2.573v9.361h5.149v-9.361l4.832-0.002
				c3.325,0,6.018-2.695,6.018-6.018V6.428C159.186,3.105,156.493,0.41,153.168,0.41z M155.159,7.504
				c0,2.773-2.453,5.014-5.49,5.061h-1.333V1.326h1.333c3.037,0.045,5.49,2.289,5.49,5.059V7.504z"/>
			<path fill="#FFFFFF" d="M63.771,0.41v1.133h1.209v13.441L49.097,0.41h-1.661v1.133h1.219v21.514h1.133V8.512l16.324,14.973
				l0.002-21.941h1.094V0.41H63.771z"/>
			<polygon fill="#FFFFFF" points="207.617,0.41 204.178,0.41 204.178,1.543 205.388,1.543 205.388,14.984 189.503,0.41 
				187.844,0.41 187.844,1.543 189.065,1.543 189.065,23.057 190.196,23.057 190.196,8.512 206.52,23.484 206.522,1.543 
				207.617,1.543 			"/>
			<path fill="#FFFFFF" d="M221.876,16.514l2.085,6.543h5.483L222.228,0.41h-5.414h-0.07l-4.496,14.971h-1.527v1.133h1.189
				l-1.625,5.408h-1.02v1.135h2.905v-1.135h-0.702l1.623-5.408H221.876z M213.433,15.381l3.92-13.053l4.162,13.053H213.433z"/>
			<path fill="#FFFFFF" d="M127.304,0.41h-0.072l-4.495,14.971h-1.531v1.133h1.191l-1.625,5.408h-1.02v1.135h2.902v-1.135h-0.699
				l1.623-5.408h8.785l2.086,6.543h5.482L132.718,0.41H127.304z M123.921,15.381l3.92-13.053l4.162,13.053H123.921z"/>
			<path fill="#FFFFFF" d="M13.71,10.822c1.938-0.795,3.298-2.695,3.298-4.916V5.725c0-2.936-2.377-5.314-5.31-5.314H2.112v10.023H0
				v1.131h2.112v11.492h11.442c3.321,0,6.016-2.697,6.016-6.018V16.83C19.569,13.561,16.962,10.906,13.71,10.822z M7.551,1.307
				l1.229,0.02c2.483,0.204,4.435,2.125,4.435,4.454v0.169c0,2.334-1.952,4.254-4.435,4.461l-1.229,0.016V1.307z M14.774,16.939
				c0,2.861-2.476,5.18-5.538,5.203H7.551V11.564h1.776c3.02,0.07,5.447,2.363,5.447,5.195V16.939z"/>
			<path fill="#FFFFFF" d="M116.876,2.576c-1.971-1.537-4.439-2.467-7.133-2.467c-6.406,0-11.597,5.193-11.597,11.598
				c0,6.408,5.19,11.598,11.597,11.598c3.203,0,6.102-1.297,8.201-3.395l-0.635-0.617c-2.008,1.848-4.573,3.109-7.566,3.109
				c-0.254,0-0.504-0.021-0.752-0.035c-2.438-0.232-4.523-2.16-4.523-4.537V5.641c0-2.531,2.416-4.625,5.055-4.625
				c0,0,0.134,0,0.221,0c2.898,0,5.119,1.074,7.103,2.82h1.233V1.543h-0.666L116.876,2.576z"/>
			<path fill="#FFFFFF" d="M33.563,0c-6.461,0-11.72,5.258-11.72,11.723c0,6.463,5.259,11.721,11.72,11.721
				c6.464,0,11.722-5.258,11.722-11.721C45.285,5.258,40.027,0,33.563,0z M41.052,12.289H38.96v4.83c0-0.104-0.029,0.938-0.037,0.84
				c-0.184,2.547-2.502,4.571-5.359,4.571c-2.863,0-5.181-2.028-5.361-4.583c-0.008,0.105-0.034-0.607-0.034-0.504v-5.154h-2.122
				v-1.133l0,0h2.122V5.934c0,0.1,0.026-0.523,0.032-0.422c0.174-2.561,2.494-4.596,5.363-4.596c2.863,0,5.184,2.029,5.361,4.584
				c0.006-0.098,0.035,1.027,0.035,0.93v4.727h2.092V12.289z"/>
			<path fill="#FFFFFF" d="M173.918,0c-6.462,0-11.72,5.258-11.72,11.723c0,6.463,5.258,11.721,11.72,11.721
				c6.464,0,11.722-5.258,11.722-11.721C185.64,5.258,180.382,0,173.918,0z M181.407,12.289h-2.093v4.83
				c0-0.104-0.027,0.938-0.037,0.84c-0.184,2.547-2.5,4.571-5.358,4.571c-2.864,0-5.181-2.028-5.361-4.583
				c-0.009,0.105-0.034-0.607-0.034-0.504v-5.154h-2.12v-1.133l0,0h2.12V5.934c0,0.1,0.025-0.523,0.033-0.422
				c0.173-2.561,2.494-4.596,5.362-4.596c2.863,0,5.183,2.029,5.36,4.584c0.008-0.098,0.035,1.027,0.035,0.93v4.727h2.093V12.289z"
				/>
		</g>
	</g>
</g>
</svg>
