<?xml version="1.0" encoding="utf-8"?>
<!-- Generator: Adobe Illustrator 16.0.0, SVG Export Plug-In . SVG Version: 6.00 Build 0)  -->
<!DOCTYPE svg PUBLIC "-//W3C//DTD SVG 1.1//EN" "http://www.w3.org/Graphics/SVG/1.1/DTD/svg11.dtd">
<svg version="1.1" id="Layer_1" xmlns="http://www.w3.org/2000/svg" xmlns:xlink="http://www.w3.org/1999/xlink" x="0px" y="0px"
	 width="57.499px" height="77.102px" viewBox="0 0 57.499 77.102" enable-background="new 0 0 57.499 77.102" xml:space="preserve">
<g>
	<path fill="#FDD71F" d="M28.75,0C12.872,0,0,12.872,0,28.75s17.138,36.738,28.75,48.352c11.466-11.468,28.75-32.474,28.75-48.352
		S44.628,0,28.75,0z M28.75,42.254c-7.458,0-13.504-6.046-13.504-13.504s6.047-13.504,13.504-13.504s13.503,6.046,13.503,13.504
		S36.207,42.254,28.75,42.254z"/>
	<g>
		<g>
			<g>
				<g>
					<g>
						<g>
							<g>
								<polygon fill="#FDD71F" points="27.902,37.361 24.325,33.785 27.861,30.252 24.325,26.712 27.861,23.176 25.05,20.364 
									25.813,19.599 29.391,23.176 25.854,26.712 29.391,30.252 25.855,33.785 28.667,36.598 								"/>
							</g>
						</g>
					</g>
					<g>
						<g>
							<g>
								<polygon fill="#FDD71F" points="31.687,37.361 28.11,33.785 31.646,30.252 28.111,26.712 31.646,23.176 28.834,20.364 
									29.598,19.599 33.175,23.176 29.64,26.712 33.175,30.252 29.64,33.785 32.451,36.598 								"/>
							</g>
						</g>
					</g>
				</g>
			</g>
		</g>
	</g>
</g>
</svg>
