<?xml version="1.0" encoding="utf-8"?>
<!-- Generator: Adobe Illustrator 16.0.0, SVG Export Plug-In . SVG Version: 6.00 Build 0)  -->
<!DOCTYPE svg PUBLIC "-//W3C//DTD SVG 1.1//EN" "http://www.w3.org/Graphics/SVG/1.1/DTD/svg11.dtd">
<svg version="1.1" id="Layer_1" xmlns="http://www.w3.org/2000/svg" xmlns:xlink="http://www.w3.org/1999/xlink" x="0px" y="0px"
	 width="8.803px" height="8.77px" viewBox="0 0 8.803 8.77" enable-background="new 0 0 8.803 8.77" xml:space="preserve">
<g>
	<g>
		<path fill="#FFFFFF" d="M5.097,7.382c-0.99,0-1.922-0.387-2.622-1.087c-0.7-0.702-1.086-1.632-1.086-2.623
			c0-0.989,0.386-1.921,1.086-2.621c1.399-1.401,3.843-1.401,5.244,0c1.445,1.444,1.445,3.798,0,5.244
			C7.019,6.995,6.087,7.382,5.097,7.382z M5.097,0.964c-0.724,0-1.404,0.282-1.915,0.794C2.67,2.269,2.389,2.949,2.389,3.672
			c0,0.725,0.281,1.404,0.793,1.916c1.023,1.022,2.806,1.022,3.83,0c1.056-1.058,1.056-2.774,0-3.83
			C6.5,1.246,5.82,0.964,5.097,0.964z"/>
	</g>
	<g>
		
			<rect x="1.091" y="5.429" transform="matrix(0.7066 0.7076 -0.7076 0.7066 5.5463 0.9804)" fill="#FFFFFF" width="1.001" height="3.499"/>
	</g>
</g>
</svg>
