<?xml version="1.0" encoding="utf-8"?>
<!-- Generator: Adobe Illustrator 16.0.0, SVG Export Plug-In . SVG Version: 6.00 Build 0)  -->
<!DOCTYPE svg PUBLIC "-//W3C//DTD SVG 1.1//EN" "http://www.w3.org/Graphics/SVG/1.1/DTD/svg11.dtd">
<svg version="1.1" id="Layer_1" xmlns="http://www.w3.org/2000/svg" xmlns:xlink="http://www.w3.org/1999/xlink" x="0px" y="0px"
	 width="50.081px" height="50.082px" viewBox="0 0 50.081 50.082" enable-background="new 0 0 50.081 50.082" xml:space="preserve">
<g>
	<g>
		<g>
			<path fill="#949494" d="M25.041,50.082C11.234,50.082,0,38.848,0,25.041C0,11.233,11.234,0,25.041,0
				c13.808,0,25.04,11.233,25.04,25.041C50.081,38.848,38.849,50.082,25.041,50.082z M25.041,1.277
				c-13.104,0-23.766,10.661-23.766,23.764s10.662,23.766,23.766,23.766s23.766-10.662,23.766-23.766S38.145,1.277,25.041,1.277z"/>
		</g>
	</g>
	<g>
		<path fill="#949494" d="M45.062,25.841H25.041c-0.442,0-0.801-0.358-0.801-0.8V4.934h1.601V24.24h19.222V25.841z"/>
	</g>
	<g>
		<rect x="24.24" y="41.273" fill="#949494" width="1.601" height="3.779"/>
	</g>
	<g>
		<rect x="5.061" y="23.152" fill="#949494" width="1.601" height="3.779"/>
	</g>
</g>
</svg>
