<?xml version="1.0" encoding="utf-8"?>
<!-- Generator: Adobe Illustrator 16.0.0, SVG Export Plug-In . SVG Version: 6.00 Build 0)  -->
<!DOCTYPE svg PUBLIC "-//W3C//DTD SVG 1.1//EN" "http://www.w3.org/Graphics/SVG/1.1/DTD/svg11.dtd">
<svg version="1.1" id="Layer_1" xmlns="http://www.w3.org/2000/svg" xmlns:xlink="http://www.w3.org/1999/xlink" x="0px" y="0px"
	 width="53.652px" height="31.789px" viewBox="0 0 53.652 31.789" enable-background="new 0 0 53.652 31.789" xml:space="preserve">
<g>
	<g>
		<path fill-rule="evenodd" clip-rule="evenodd" fill="#78C8C9" d="M32.88,0.499c1.492,0.216,2.961,0.586,4.412,1.034
			c2.527,0.776,4.916,1.86,7.159,3.264c0.156,0.097,0.366,0.16,0.549,0.16c2.637,0.01,5.273,0.005,7.905,0.01
			c0.215,0,0.426,0.022,0.636,0.032c0,0.055,0.01,0.073,0,0.086c-0.124,0.188-0.247,0.376-0.371,0.563
			c-0.892,1.373-1.657,2.808-2.11,4.395c-0.046,0.169-0.06,0.312,0.055,0.48c2.348,3.369,3.099,7.067,2.115,11.059
			c-0.86,3.496-2.865,6.225-5.909,8.156c-2.179,1.382-4.586,2.039-7.154,2.051c-1.08,0.007-2.156-0.138-3.208-0.412
			c-2.568-0.668-4.773-1.945-6.591-3.886c-0.238-0.252-0.462-0.522-0.719-0.811c-0.961,1.433-1.909,2.838-2.875,4.284
			c-0.961-1.441-1.895-2.834-2.824-4.225c-0.064,0.036-0.082,0.039-0.096,0.051c-0.022,0.02-0.037,0.038-0.055,0.059
			c-2.197,2.596-4.962,4.184-8.326,4.715c-1.872,0.298-3.73,0.192-5.547-0.309c-2.577-0.707-4.77-2.066-6.532-4.074
			c-1.735-1.965-2.811-4.241-3.213-6.831c-0.466-2.419,0.101-4.747,0.243-5.31c0.403-1.647,1.112-3.154,2.092-4.543
			c0.069-0.099,0.092-0.272,0.06-0.392C2.176,8.65,1.49,7.326,0.689,6.056C0.487,5.73,0.24,5.434,0.016,5.122V5.018
			C0.062,5.023,0.107,5.03,0.153,5.03c2.696,0.003,5.392,0.003,8.093-0.005c0.114,0,0.242-0.045,0.343-0.109
			c1.895-1.218,3.918-2.179,6.037-2.932c1.533-0.54,3.094-0.959,4.687-1.269c1.543-0.299,3.094-0.51,4.66-0.614
			C27.795-0.191,30.848,0.216,32.88,0.499L32.88,0.499z M29.498,18.313c0,5.925,4.806,10.764,10.71,10.742
			c5.922-0.022,10.706-4.723,10.702-10.714c-0.005-6.171-5.012-10.81-10.936-10.688C34.125,7.77,29.552,12.487,29.498,18.313
			L29.498,18.313z M13.436,7.607C7.674,7.56,2.648,12.367,2.749,18.494C2.845,24.205,7.55,29.05,13.556,28.999
			c5.868-0.053,10.587-4.845,10.6-10.649C24.161,12.386,19.387,7.607,13.436,7.607L13.436,7.607z M13.967,4.813
			c3.25,0.199,6.11,1.337,8.527,3.531c2.412,2.192,3.827,4.93,4.339,8.145c0.522-3.181,1.9-5.888,4.266-8.058
			c2.367-2.174,5.191-3.31,8.395-3.554c-3.799-1.691-7.808-2.41-11.933-2.488C22.879,2.299,18.32,2.989,13.967,4.813L13.967,4.813z
			 M13.967,4.813"/>
		<path fill-rule="evenodd" clip-rule="evenodd" fill="#78C8C9" d="M40.186,11.558c3.662-0.009,6.632,2.947,6.632,6.604
			c0,3.681-2.916,6.523-6.357,6.651c-3.85,0.148-6.925-2.911-6.925-6.633C33.54,14.423,36.638,11.493,40.186,11.558L40.186,11.558z
			 M44.511,18.181c-0.004-2.385-1.94-4.329-4.307-4.329c-2.403,0-4.353,1.931-4.366,4.311c-0.009,2.377,1.954,4.349,4.334,4.358
			C42.552,22.524,44.511,20.568,44.511,18.181L44.511,18.181z M44.511,18.181"/>
		<path fill-rule="evenodd" clip-rule="evenodd" fill="#78C8C9" d="M13.294,11.558c3.662-0.005,6.637,2.955,6.623,6.613
			c-0.009,3.708-2.934,6.489-6.312,6.643c-3.863,0.179-6.976-2.902-6.967-6.637C6.644,14.391,9.761,11.493,13.294,11.558
			L13.294,11.558z M17.611,18.167c-0.009-2.403-1.95-4.321-4.376-4.315c-2.343,0.006-4.307,1.981-4.298,4.329
			c0.004,2.381,1.963,4.33,4.348,4.34C15.656,22.524,17.62,20.552,17.611,18.167L17.611,18.167z M17.611,18.167"/>
		<path fill-rule="evenodd" clip-rule="evenodd" fill="#78C8C9" d="M40.19,15.982c1.212,0,2.206,0.996,2.197,2.208
			c-0.014,1.208-0.989,2.188-2.184,2.188c-1.231,0-2.225-0.971-2.22-2.175C37.984,16.955,38.945,15.983,40.19,15.982L40.19,15.982z
			 M40.19,15.982"/>
		<path fill-rule="evenodd" clip-rule="evenodd" fill="#78C8C9" d="M13.281,15.966c1.231-0.005,2.224,0.981,2.229,2.215
			c0.005,1.218-0.993,2.218-2.22,2.22c-1.259,0-2.229-0.968-2.229-2.229C11.061,16.931,12.031,15.966,13.281,15.966L13.281,15.966z
			 M13.281,15.966"/>
	</g>
</g>
</svg>
