<?xml version="1.0" encoding="utf-8"?>
<!-- Generator: Adobe Illustrator 16.0.0, SVG Export Plug-In . SVG Version: 6.00 Build 0)  -->
<!DOCTYPE svg PUBLIC "-//W3C//DTD SVG 1.1//EN" "http://www.w3.org/Graphics/SVG/1.1/DTD/svg11.dtd">
<svg version="1.1" id="Layer_1" xmlns="http://www.w3.org/2000/svg" xmlns:xlink="http://www.w3.org/1999/xlink" x="0px" y="0px"
	 width="22.894px" height="13.565px" viewBox="0 0 22.894 13.565" enable-background="new 0 0 22.894 13.565" xml:space="preserve">
<g>
	<path fill-rule="evenodd" clip-rule="evenodd" fill="#FFFFFF" d="M14.029,0.213c0.638,0.091,1.265,0.25,1.884,0.44
		c1.079,0.333,2.097,0.795,3.055,1.393c0.067,0.042,0.157,0.068,0.234,0.068c1.126,0.004,2.25,0.002,3.374,0.004
		c0.091,0,0.181,0.01,0.271,0.014c0,0.024,0.004,0.032,0,0.038c-0.052,0.081-0.105,0.161-0.158,0.241
		c-0.381,0.585-0.707,1.198-0.899,1.875c-0.021,0.073-0.025,0.133,0.023,0.205c1.002,1.438,1.321,3.017,0.902,4.719
		c-0.367,1.493-1.222,2.657-2.522,3.481c-0.93,0.588-1.957,0.87-3.052,0.875c-0.461,0.002-0.919-0.058-1.37-0.176
		c-1.096-0.285-2.037-0.831-2.812-1.659c-0.102-0.108-0.197-0.222-0.307-0.346c-0.41,0.611-0.814,1.212-1.226,1.829
		c-0.411-0.615-0.809-1.208-1.206-1.802c-0.027,0.015-0.035,0.016-0.041,0.021c-0.009,0.008-0.016,0.016-0.024,0.025
		c-0.937,1.107-2.116,1.786-3.552,2.012c-0.8,0.127-1.592,0.082-2.367-0.132c-1.1-0.302-2.035-0.882-2.788-1.738
		c-0.739-0.839-1.199-1.81-1.37-2.915C-0.122,7.651,0.12,6.659,0.18,6.418c0.172-0.703,0.476-1.346,0.892-1.938
		c0.03-0.042,0.04-0.116,0.026-0.167C0.929,3.691,0.635,3.126,0.294,2.584C0.208,2.445,0.103,2.318,0.006,2.186V2.141
		c0.02,0.002,0.039,0.005,0.058,0.005c1.151,0.001,2.302,0.001,3.453-0.001c0.05,0,0.105-0.02,0.148-0.047
		c0.809-0.52,1.672-0.93,2.576-1.251c0.653-0.23,1.319-0.41,2-0.541c0.659-0.128,1.32-0.217,1.988-0.262
		C11.86-0.082,13.163,0.091,14.029,0.213L14.029,0.213z M12.586,7.814c0,2.528,2.05,4.593,4.57,4.584
		c2.527-0.009,4.569-2.016,4.567-4.572c-0.002-2.634-2.138-4.613-4.667-4.562C14.562,3.315,12.61,5.328,12.586,7.814L12.586,7.814z
		 M5.732,3.247c-2.459-0.021-4.604,2.031-4.56,4.645c0.041,2.437,2.049,4.504,4.611,4.483c2.504-0.023,4.518-2.068,4.523-4.544
		C10.31,5.285,8.271,3.247,5.732,3.247L5.732,3.247z M5.959,2.054c1.388,0.085,2.607,0.57,3.64,1.506
		c1.028,0.936,1.631,2.104,1.85,3.476c0.224-1.357,0.812-2.513,1.821-3.439c1.01-0.927,2.215-1.412,3.582-1.516
		c-1.622-0.722-3.332-1.028-5.091-1.062C9.762,0.981,7.817,1.275,5.959,2.054L5.959,2.054z M5.959,2.054"/>
	<path fill-rule="evenodd" clip-rule="evenodd" fill="#FFFFFF" d="M17.146,4.932c1.564-0.003,2.83,1.257,2.83,2.819
		c0,1.57-1.244,2.783-2.713,2.838c-1.641,0.062-2.955-1.243-2.955-2.83C14.311,6.155,15.633,4.904,17.146,4.932L17.146,4.932z
		 M18.992,7.759c-0.001-1.019-0.827-1.848-1.838-1.848c-1.025,0-1.857,0.824-1.863,1.84c-0.004,1.014,0.834,1.855,1.849,1.858
		C18.157,9.611,18.992,8.776,18.992,7.759L18.992,7.759z M18.992,7.759"/>
	<path fill-rule="evenodd" clip-rule="evenodd" fill="#FFFFFF" d="M5.672,4.932C7.235,4.93,8.504,6.192,8.5,7.754
		c-0.004,1.582-1.252,2.768-2.695,2.834C4.158,10.664,2.829,9.35,2.832,7.755C2.834,6.141,4.166,4.904,5.672,4.932L5.672,4.932z
		 M7.515,7.751C7.511,6.727,6.682,5.908,5.646,5.911C4.647,5.913,3.81,6.755,3.812,7.758c0.003,1.016,0.839,1.848,1.856,1.851
		C6.681,9.611,7.518,8.77,7.515,7.751L7.515,7.751z M7.515,7.751"/>
	<path fill-rule="evenodd" clip-rule="evenodd" fill="#FFFFFF" d="M17.148,6.819c0.518,0,0.942,0.426,0.939,0.942
		c-0.007,0.516-0.423,0.934-0.933,0.934c-0.525,0-0.948-0.415-0.947-0.927C16.208,7.234,16.619,6.82,17.148,6.819L17.148,6.819z
		 M17.148,6.819"/>
	<path fill-rule="evenodd" clip-rule="evenodd" fill="#FFFFFF" d="M5.667,6.812c0.526-0.001,0.95,0.419,0.951,0.945
		C6.62,8.277,6.194,8.704,5.67,8.705c-0.536,0-0.951-0.413-0.951-0.951C4.719,7.224,5.133,6.812,5.667,6.812L5.667,6.812z
		 M5.667,6.812"/>
</g>
</svg>
