<?xml version="1.0" encoding="utf-8"?>
<!-- Generator: Adobe Illustrator 16.0.0, SVG Export Plug-In . SVG Version: 6.00 Build 0)  -->
<!DOCTYPE svg PUBLIC "-//W3C//DTD SVG 1.1//EN" "http://www.w3.org/Graphics/SVG/1.1/DTD/svg11.dtd">
<svg version="1.1" id="Layer_1" xmlns="http://www.w3.org/2000/svg" xmlns:xlink="http://www.w3.org/1999/xlink" x="0px" y="0px"
	 width="19.416px" height="20.396px" viewBox="0 0 19.416 20.396" enable-background="new 0 0 19.416 20.396" xml:space="preserve">
<g>
	<g>
		<path fill="#FFFFFF" d="M19.416,20.396h-1c0-4.802-3.906-8.709-8.708-8.709S1,15.594,1,20.396H0c0-5.354,4.355-9.709,9.708-9.709
			S19.416,15.043,19.416,20.396z"/>
	</g>
	<g>
		<path fill="#FFFFFF" d="M9.708,9c-2.481,0-4.5-2.019-4.5-4.5S7.227,0,9.708,0s4.5,2.019,4.5,4.5S12.189,9,9.708,9z M9.708,1
			c-1.93,0-3.5,1.57-3.5,3.5S7.778,8,9.708,8s3.5-1.57,3.5-3.5S11.638,1,9.708,1z"/>
	</g>
</g>
</svg>
