<?xml version="1.0" encoding="utf-8"?>
<!-- Generator: Adobe Illustrator 16.0.0, SVG Export Plug-In . SVG Version: 6.00 Build 0)  -->
<!DOCTYPE svg PUBLIC "-//W3C//DTD SVG 1.1//EN" "http://www.w3.org/Graphics/SVG/1.1/DTD/svg11.dtd">
<svg version="1.1" id="Layer_1" xmlns="http://www.w3.org/2000/svg" xmlns:xlink="http://www.w3.org/1999/xlink" x="0px" y="0px"
	 width="8.548px" height="10.482px" viewBox="0 0 8.548 10.482" enable-background="new 0 0 8.548 10.482" xml:space="preserve">
<g>
	<g>
		<g>
			<path fill="#FFFFFF" d="M4.274,5.386c-0.723,0-1.402-0.281-1.913-0.792C1.85,4.083,1.567,3.402,1.568,2.68
				c0-0.724,0.282-1.404,0.793-1.914c1.021-1.022,2.803-1.022,3.825,0c0.511,0.508,0.792,1.189,0.793,1.911
				c0,0.722-0.281,1.405-0.794,1.917C5.675,5.104,4.996,5.386,4.274,5.386z M4.273,0.975c-0.455,0-0.882,0.177-1.205,0.5
				c-0.322,0.321-0.5,0.75-0.5,1.206c0,0.455,0.177,0.883,0.5,1.208C3.712,4.53,4.835,4.53,5.479,3.886
				c0.322-0.323,0.5-0.751,0.5-1.208c0-0.455-0.178-0.882-0.5-1.202C5.157,1.151,4.729,0.975,4.273,0.975z"/>
		</g>
	</g>
	<g>
		<g>
			<path fill="#FFFFFF" d="M7.548,10.482C7.547,8.678,6.079,7.21,4.274,7.21C2.469,7.21,1,8.678,1,10.482H0
				C0,8.126,1.917,6.21,4.274,6.21c2.355,0,4.272,1.917,4.273,4.272H7.548z"/>
		</g>
	</g>
</g>
</svg>
