<?xml version="1.0" encoding="utf-8"?>
<!-- Generator: Adobe Illustrator 16.0.0, SVG Export Plug-In . SVG Version: 6.00 Build 0)  -->
<!DOCTYPE svg PUBLIC "-//W3C//DTD SVG 1.1//EN" "http://www.w3.org/Graphics/SVG/1.1/DTD/svg11.dtd">
<svg version="1.1" id="Layer_1" xmlns="http://www.w3.org/2000/svg" xmlns:xlink="http://www.w3.org/1999/xlink" x="0px" y="0px"
	 width="16.681px" height="9.517px" viewBox="0 0 16.681 9.517" enable-background="new 0 0 16.681 9.517" xml:space="preserve">
<g>
	<path fill="#FFFFFF" d="M14.875,6.574c-1.397-1.298-1.206-1.085,0.475-3.335c1.025-1.361,1.437-2.193,1.308-2.553
		c-0.122-0.34-0.875-0.248-0.875-0.248l-2.51,0.015c0,0-0.188-0.027-0.323,0.055c-0.137,0.081-0.222,0.266-0.222,0.266
		s-0.398,1.06-0.927,1.96c-1.118,1.893-1.563,1.996-1.746,1.878C9.63,4.341,9.738,3.512,9.738,2.919
		c0-1.834,0.278-2.602-0.545-2.801c-0.273-0.065-0.473-0.11-1.17-0.115C7.125-0.008,6.37,0.005,5.941,0.215
		C5.655,0.355,5.436,0.665,5.57,0.68c0.165,0.026,0.541,0.105,0.74,0.372C6.565,1.405,6.558,2.19,6.558,2.19
		s0.148,2.167-0.346,2.434C5.875,4.807,5.411,4.433,4.414,2.712C3.903,1.827,3.519,0.856,3.519,0.856s-0.074-0.183-0.207-0.28
		C3.152,0.458,2.924,0.42,2.924,0.42l-2.38,0.018c0,0-0.359,0.008-0.493,0.163C-0.061,0.74,0.044,1.024,0.044,1.024
		S1.912,5.39,4.023,7.592C5.961,9.611,8.163,9.48,8.163,9.48h0.998c0,0,0.3-0.035,0.452-0.203C9.757,9.128,9.751,8.84,9.751,8.84
		S9.73,7.501,10.354,7.306c0.61-0.194,1.396,1.292,2.232,1.864c0.627,0.433,1.107,0.338,1.107,0.338l2.226-0.028
		c0,0,1.166-0.074,0.612-0.991C16.49,8.415,16.214,7.812,14.875,6.574z"/>
</g>
</svg>
