<?xml version="1.0" encoding="utf-8"?>
<!-- Generator: Adobe Illustrator 16.0.0, SVG Export Plug-In . SVG Version: 6.00 Build 0)  -->
<!DOCTYPE svg PUBLIC "-//W3C//DTD SVG 1.1//EN" "http://www.w3.org/Graphics/SVG/1.1/DTD/svg11.dtd">
<svg version="1.1" id="Layer_1" xmlns="http://www.w3.org/2000/svg" xmlns:xlink="http://www.w3.org/1999/xlink" x="0px" y="0px"
	 width="39.094px" height="22.303px" viewBox="0 0 39.094 22.303" enable-background="new 0 0 39.094 22.303" xml:space="preserve">
<g>
	<g>
		<path fill="#78C8C9" d="M34.864,15.407c-3.277-3.042-2.829-2.543,1.112-7.815c2.403-3.192,3.364-5.143,3.062-5.985
			c-0.284-0.798-2.051-0.581-2.051-0.581L31.106,1.06c0,0-0.439-0.063-0.755,0.131c-0.321,0.19-0.522,0.625-0.522,0.625
			s-0.934,2.483-2.174,4.59c-2.618,4.438-3.662,4.679-4.092,4.404c-0.993-0.637-0.742-2.579-0.742-3.969
			c0-4.3,0.655-6.097-1.277-6.563c-0.641-0.153-1.108-0.258-2.742-0.271c-2.101-0.027-3.873,0.005-4.879,0.497
			c-0.668,0.327-1.186,1.055-0.87,1.09c0.389,0.062,1.268,0.247,1.735,0.871c0.6,0.829,0.582,2.669,0.582,2.669
			s0.347,5.076-0.811,5.703c-0.792,0.431-1.876-0.448-4.215-4.481C9.149,4.282,8.248,2.008,8.248,2.008S8.074,1.577,7.763,1.349
			C7.387,1.073,6.856,0.984,6.856,0.984L1.277,1.025c0,0-0.843,0.019-1.154,0.383c-0.266,0.325-0.018,0.993-0.018,0.993
			S4.48,12.631,9.429,17.792c4.545,4.73,9.704,4.424,9.704,4.424h2.339c0,0,0.7-0.082,1.057-0.474
			c0.339-0.351,0.325-1.025,0.325-1.025s-0.05-3.138,1.415-3.596c1.428-0.453,3.272,3.03,5.231,4.372
			c1.469,1.011,2.591,0.789,2.591,0.789l5.218-0.066c0,0,2.732-0.172,1.437-2.321C38.645,19.721,38,18.309,34.864,15.407z"/>
	</g>
</g>
</svg>
