<?xml version="1.0" encoding="utf-8"?>
<!-- Generator: Adobe Illustrator 16.0.0, SVG Export Plug-In . SVG Version: 6.00 Build 0)  -->
<!DOCTYPE svg PUBLIC "-//W3C//DTD SVG 1.1//EN" "http://www.w3.org/Graphics/SVG/1.1/DTD/svg11.dtd">
<svg version="1.1" id="Layer_1" xmlns="http://www.w3.org/2000/svg" xmlns:xlink="http://www.w3.org/1999/xlink" x="0px" y="0px"
	 width="84.049px" height="30px" viewBox="0 0 84.049 30" enable-background="new 0 0 84.049 30" xml:space="preserve">
<g>
	<path fill="#44678D" d="M50.712,15.411c-0.287,0.097-0.396,0.354-0.388,0.644c0.007,0.257,0.069,0.497,0.357,0.591
		c0.484,0.157,0.923,0.064,1.314-0.255c0.037-0.031,0.073-0.089,0.073-0.136c0.006-0.356,0.003-0.714,0.003-1.096
		c-0.168,0.016-0.307,0.017-0.44,0.043C51.323,15.263,51.009,15.312,50.712,15.411z"/>
	<path fill="#44678D" d="M18.874,14.751c-0.063-0.021-0.127-0.041-0.236-0.075c0.095-0.057,0.153-0.089,0.209-0.124
		c0.517-0.321,0.725-0.801,0.678-1.389c-0.045-0.567-0.359-0.953-0.898-1.119c-0.292-0.09-0.605-0.145-0.91-0.152
		c-0.842-0.021-1.685-0.007-2.527-0.006c-0.06,0-0.119,0.008-0.186,0.013c0,2.062,0,4.109,0,6.18c0.083,0,0.158,0,0.232,0
		c0.829,0,1.657,0.002,2.485-0.002c0.186-0.001,0.372-0.014,0.556-0.039c0.875-0.122,1.5-0.707,1.651-1.535
		C20.079,15.674,19.675,15.003,18.874,14.751z M16.509,13.106c0.001-0.043,0.074-0.12,0.114-0.12
		c0.261-0.002,0.525-0.009,0.783,0.026c0.382,0.052,0.57,0.281,0.567,0.639c-0.003,0.362-0.213,0.612-0.577,0.669
		c-0.135,0.021-0.274,0.021-0.412,0.023c-0.151,0.004-0.302,0.001-0.481,0.001C16.504,13.904,16.5,13.505,16.509,13.106z
		 M17.889,16.872c-0.438,0.092-0.894,0.106-1.374,0.157c0-0.587,0-1.1,0-1.669c0.455,0.028,0.901,0.024,1.337,0.094
		c0.336,0.053,0.494,0.312,0.504,0.662C18.37,16.513,18.23,16.801,17.889,16.872z"/>
	<path fill="#44678D" d="M33.065,13.209c-0.432,0-0.757,0.184-0.904,0.592c-0.099,0.274-0.158,0.57-0.191,0.861
		c-0.054,0.47-0.014,0.937,0.147,1.387c0.153,0.428,0.471,0.636,0.911,0.658c0.458,0.022,0.819-0.188,0.969-0.627
		c0.118-0.346,0.155-0.72,0.234-1.107c-0.083-0.392-0.131-0.797-0.258-1.177C33.836,13.388,33.497,13.208,33.065,13.209z"/>
	<path fill="#44678D" d="M69.367,13.089c-0.529,0.085-0.922,0.564-0.877,1.08c0.023,0.006,0.049,0.019,0.075,0.019
		c0.62,0.002,1.24,0.001,1.86,0.005c0.123,0,0.146-0.055,0.144-0.166C70.558,13.381,70.047,12.98,69.367,13.089z"/>
	<path fill="#44678D" d="M0,0v30h84.049V0H0z M22.497,18.303c-0.001,1.025-0.711,1.896-1.714,2.103
		c-0.093,0.02-0.192,0.017-0.288,0.017c-1.146,0.001-2.293,0.001-3.44,0.001c-1.14,0-2.279,0.001-3.419,0
		c-1.024-0.001-1.98-0.956-1.981-1.981c-0.001-2.266-0.001-4.531-0.002-6.797c0-0.967,0.735-1.848,1.693-2.021
		c0.168-0.03,0.342-0.044,0.514-0.044C16,9.576,18.141,9.575,20.282,9.578c1.137,0.001,1.98,0.697,2.195,1.805
		c0.021,0.107,0.021,0.22,0.021,0.329C22.499,13.909,22.499,16.105,22.497,18.303z M29.782,17.853
		c-0.56,0.001-1.119-0.005-1.678,0.004c-0.144,0.002-0.22-0.047-0.292-0.17c-0.359-0.614-0.744-1.212-1.086-1.834
		c-0.144-0.262-0.317-0.331-0.604-0.257c0,0.736,0,1.479,0,2.246c-0.624,0-1.208,0-1.81,0c0-1.919,0-3.834,0-5.763
		c0.594,0,1.183,0,1.802,0c0,0.758,0,1.506,0,2.258c0.344,0.049,0.61-0.03,0.769-0.319c0.159-0.29,0.308-0.587,0.438-0.891
		c0.313-0.732,0.864-1.08,1.656-1.062c0.22,0.005,0.44,0.001,0.678,0.001c0,0.521,0,1.027,0,1.556
		c-0.078,0.007-0.158,0.022-0.237,0.019c-0.411-0.018-0.678,0.173-0.838,0.545c-0.103,0.238-0.229,0.466-0.366,0.744
		c0.571,0.927,1.173,1.903,1.793,2.909C29.9,17.845,29.841,17.853,29.782,17.853z M35.756,16.476
		c-0.361,0.795-0.981,1.279-1.836,1.459c-0.63,0.133-1.262,0.13-1.883-0.045c-0.908-0.255-1.503-0.85-1.781-1.743
		c-0.252-0.811-0.251-1.635,0.018-2.44c0.337-1.01,1.065-1.58,2.104-1.76c0.23-0.04,0.466-0.045,0.699-0.065
		c0.798,0.012,1.532,0.191,2.125,0.766c0.492,0.478,0.731,1.072,0.813,1.743C36.103,15.108,36.059,15.811,35.756,16.476z
		 M42.297,17.838c-0.586,0-1.17,0-1.781,0c0-0.812,0-1.628,0-2.458c-0.625,0-1.222,0-1.847,0c0,0.815,0,1.632,0,2.461
		c-0.611,0-1.194,0-1.795,0c0-1.917,0-3.832,0-5.761c0.586,0,1.17,0,1.781,0c0,0.646,0,1.297,0,1.961c0.624,0,1.221,0,1.853,0
		c0-0.659,0-1.306,0-1.963c0.604,0,1.188,0,1.789,0C42.297,13.994,42.297,15.909,42.297,17.838z M48.269,13.332
		c-0.586,0-1.163,0-1.76,0c0,1.509,0,2.997,0,4.511c-0.605,0-1.175,0-1.766,0c0-1.497,0-2.985,0-4.502c-0.603,0-1.185,0-1.779,0
		c0-0.432,0-0.837,0-1.258c1.764,0,3.526,0,5.305,0C48.269,12.492,48.269,12.901,48.269,13.332z M53.873,17.836
		c-0.592,0-1.181,0-1.794,0c0-0.175,0-0.349,0-0.576c-0.107,0.088-0.173,0.143-0.24,0.197c-0.581,0.476-1.249,0.643-1.977,0.5
		c-0.907-0.179-1.479-1.062-1.381-2.001c0.106-1.012,0.759-1.475,1.696-1.68c0.549-0.12,1.118-0.154,1.679-0.217
		c0.225-0.024,0.26-0.061,0.197-0.285c-0.11-0.389-0.435-0.464-0.768-0.524c-0.669-0.122-1.301,0.021-1.919,0.271
		c-0.116,0.047-0.24,0.078-0.402,0.129c0-0.493-0.003-0.92,0.005-1.347c0.001-0.049,0.066-0.126,0.114-0.138
		c1.131-0.278,2.271-0.388,3.416-0.091c0.898,0.233,1.375,0.843,1.383,1.77c0.01,1.284,0.003,2.568,0.002,3.853
		C53.883,17.737,53.877,17.778,53.873,17.836z M60.522,17.853c-0.532,0-1.063-0.008-1.595,0.005
		c-0.178,0.004-0.27-0.061-0.356-0.209c-0.35-0.603-0.712-1.197-1.07-1.796c-0.19-0.318-0.19-0.318-0.59-0.259
		c0,0.74,0,1.482,0,2.242c-0.622,0-1.224,0-1.841,0c0-1.914,0-3.823,0-5.752c0.6,0,1.202,0,1.83,0c0,0.746,0,1.494,0,2.25
		c0.32,0.05,0.58-0.01,0.739-0.279c0.153-0.26,0.297-0.53,0.408-0.811c0.331-0.837,0.932-1.233,1.831-1.18
		c0.151,0.009,0.304,0.001,0.456,0.003c0.02,0,0.041,0.006,0.079,0.012c0,0.505,0,1.012,0,1.542c-0.087,0.007-0.18,0.021-0.272,0.02
		c-0.358-0.002-0.6,0.167-0.749,0.485c-0.122,0.26-0.251,0.517-0.394,0.806c0.574,0.932,1.173,1.903,1.8,2.921
		C60.667,17.853,60.595,17.853,60.522,17.853z M66.219,13.331c-0.585,0-1.162,0-1.76,0c0,1.509,0,2.998,0,4.511
		c-0.619,0-1.203,0-1.808,0c0-1.496,0-2.984,0-4.501c-0.602,0-1.184,0-1.779,0c0-0.432,0-0.836,0-1.258c1.777,0,3.554,0,5.346,0
		C66.219,12.492,66.219,12.901,66.219,13.331z M72.188,15.328c-1.154-0.006-2.308-0.003-3.461-0.003c-0.075,0-0.15,0-0.24,0
		c-0.017,0.675,0.464,1.19,1.172,1.303c0.802,0.128,1.532-0.047,2.212-0.479c0.108-0.068,0.246-0.09,0.415-0.149
		c0,0.414,0.005,0.771-0.001,1.128c-0.008,0.471,0.092,0.367-0.367,0.534c-1.164,0.424-2.347,0.483-3.526,0.072
		c-0.879-0.307-1.437-0.93-1.653-1.84c-0.187-0.786-0.156-1.564,0.159-2.313c0.396-0.945,1.129-1.474,2.13-1.636
		c0.5-0.081,1.003-0.085,1.501,0.025c1.003,0.224,1.647,0.901,1.791,1.924c0.058,0.408,0.051,0.825,0.077,1.237
		C72.407,15.288,72.337,15.328,72.188,15.328z"/>
</g>
</svg>
