<?xml version="1.0" encoding="utf-8"?>
<!-- Generator: Adobe Illustrator 16.0.0, SVG Export Plug-In . SVG Version: 6.00 Build 0)  -->
<!DOCTYPE svg PUBLIC "-//W3C//DTD SVG 1.1//EN" "http://www.w3.org/Graphics/SVG/1.1/DTD/svg11.dtd">
<svg version="1.1" id="Layer_1" xmlns="http://www.w3.org/2000/svg" xmlns:xlink="http://www.w3.org/1999/xlink" x="0px" y="0px"
	 width="15.171px" height="11.381px" viewBox="0 0 15.171 11.381" enable-background="new 0 0 15.171 11.381" xml:space="preserve">
<path fill="#FFFFFF" d="M15.019,2.456c0,0-0.148-1.116-0.603-1.607c-0.577-0.644-1.224-0.647-1.52-0.685C10.773,0,7.589,0,7.589,0
	H7.582c0,0-3.185,0-5.307,0.164c-0.297,0.038-0.942,0.041-1.52,0.685C0.301,1.34,0.152,2.456,0.152,2.456S0,3.766,0,5.075v1.226
	c0,1.312,0.152,2.62,0.152,2.62s0.148,1.116,0.603,1.606c0.578,0.645,1.335,0.625,1.673,0.692c1.213,0.124,5.157,0.162,5.157,0.162
	s3.188-0.005,5.311-0.168c0.296-0.038,0.943-0.042,1.52-0.686c0.455-0.491,0.603-1.606,0.603-1.606s0.152-1.308,0.152-2.618V5.075
	C15.171,3.766,15.019,2.456,15.019,2.456z M5.691,8.537V2.845l4.743,2.846L5.691,8.537z"/>
</svg>
