<?xml version="1.0" encoding="utf-8"?>
<!-- Generator: Adobe Illustrator 16.0.0, SVG Export Plug-In . SVG Version: 6.00 Build 0)  -->
<!DOCTYPE svg PUBLIC "-//W3C//DTD SVG 1.1//EN" "http://www.w3.org/Graphics/SVG/1.1/DTD/svg11.dtd">
<svg version="1.1" id="Layer_1" xmlns="http://www.w3.org/2000/svg" xmlns:xlink="http://www.w3.org/1999/xlink" x="0px" y="0px"
	 width="35.551px" height="26.673px" viewBox="0 0 35.551 26.673" enable-background="new 0 0 35.551 26.673" xml:space="preserve">
<path fill="#78C8C9" d="M35.194,5.757c0,0-0.343-2.617-1.41-3.767c-1.355-1.509-2.87-1.517-3.565-1.606C25.244,0,17.782,0,17.782,0
	h-0.013c0,0-7.466,0-12.441,0.384C4.632,0.474,3.122,0.481,1.767,1.99C0.705,3.14,0.353,5.757,0.353,5.757S0,8.824,0,11.896v2.872
	c0,3.073,0.353,6.141,0.353,6.141s0.348,2.613,1.414,3.763c1.355,1.51,3.131,1.465,3.923,1.622c2.842,0.291,12.083,0.38,12.083,0.38
	s7.471-0.012,12.446-0.394c0.695-0.089,2.21-0.099,3.565-1.608c1.066-1.149,1.41-3.763,1.41-3.763s0.357-3.067,0.357-6.136v-2.877
	C35.551,8.824,35.194,5.757,35.194,5.757z M13.333,20.006V6.668l11.118,6.669L13.333,20.006z"/>
</svg>
